<svg width="158" height="47" viewBox="0 0 158 47" fill="none" xmlns="http://www.w3.org/2000/svg">
<g clip-path="url(#clip0_65_519)">
<path d="M12.8142 21.9516C12.4257 22.4724 11.9199 22.8813 11.2967 23.1771C10.6731 23.4733 9.85056 23.6214 8.82886 23.6214H4.16921V15.8394H9.38075C9.80993 15.8394 10.1266 15.9673 10.331 16.2224C10.5351 16.478 10.6376 16.7791 10.6376 17.1262V17.5246H10.9749V13.2354H10.6376V13.6336C10.6376 13.9811 10.5351 14.2823 10.331 14.5375C10.1266 14.7931 9.80993 14.9204 9.38075 14.9204H4.16921V7.13848H10.515C10.9849 7.13848 11.358 7.29167 11.6339 7.59806C11.9098 7.90445 12.0478 8.27205 12.0478 8.70097V9.16055H12.385V5.69852C12.1192 5.80096 11.6286 5.90816 10.9135 6.02023C10.1979 6.13272 9.52347 6.18876 8.89021 6.18876H0V6.49515H0.429182C0.939827 6.49515 1.35896 6.64834 1.68605 6.95473C2.01273 7.26111 2.18664 7.64933 2.20716 8.11896V22.6103C2.18654 23.0599 2.01273 23.4481 1.68605 23.7746C1.35885 24.1014 0.939723 24.2647 0.429182 24.2647H0V24.5711H12.4463L14.1324 20.19H13.8259C13.5394 20.8438 13.2021 21.4308 12.8142 21.9516Z" fill="black"/>
<path d="M9.05878 3.41606C9.6001 3.14033 10.147 2.84927 10.6989 2.54288C11.2507 2.2365 11.8025 1.93011 12.3543 1.62372C12.1904 1.31733 11.9965 1.03156 11.7718 0.765877C11.5467 0.500611 11.322 0.244977 11.0974 -9.15527e-05C10.6682 0.408736 10.2338 0.832375 9.79453 1.27134C9.3553 1.71031 8.92083 2.15985 8.49165 2.61943C8.06247 3.07901 7.63328 3.54377 7.2041 4.0134L7.41864 4.22781C7.97043 3.96265 8.51704 3.69178 9.05878 3.41606Z" fill="black"/>
<path d="M41.5994 21.6913C41.1702 22.3041 40.6131 22.7789 39.9285 23.1159C39.2436 23.453 38.3598 23.6215 37.2769 23.6215H32.8931V5.36159C32.9132 4.83074 33.1125 4.37644 33.4909 3.99817C33.8693 3.6199 34.3234 3.43139 34.8552 3.43139H35.2537V3.125H28.54V3.43139H28.9385C29.4697 3.43139 29.9243 3.62052 30.3028 3.99817C30.6807 4.37634 30.88 4.83064 30.9006 5.36159V22.3346C30.88 22.8661 30.6808 23.3204 30.3028 23.698C29.9248 24.0757 29.4698 24.2648 28.9385 24.2648H28.54V24.5712H41.2622L43.0403 19.608H42.7337C42.4065 20.3844 42.0286 21.0785 41.5995 21.6913H41.5994Z" fill="black"/>
<path d="M73.88 4.09005C72.2246 3.16094 70.3033 2.69608 68.1168 2.69608C65.9502 2.69608 64.0396 3.16094 62.3841 4.09005C60.7287 5.01977 59.4359 6.32176 58.5061 7.99633C57.576 9.67131 57.1113 11.622 57.1113 13.848C57.1113 16.0741 57.576 18.0253 58.5061 19.6998C59.4359 21.3748 60.7287 22.6768 62.3841 23.606C64.0396 24.5358 65.9502 25 68.1168 25C70.3034 25 72.2246 24.5358 73.88 23.606C75.5355 22.6768 76.8278 21.3748 77.758 19.6998C78.6877 18.0253 79.1529 16.0745 79.1529 13.848C79.1529 11.6216 78.6877 9.67131 77.758 7.99633C76.8278 6.32176 75.5355 5.01977 73.88 4.09005ZM75.7041 19.2096C74.9784 20.7415 73.9667 21.9363 72.6692 22.7942C71.371 23.6519 69.8535 24.081 68.1168 24.081C66.4 24.081 64.8927 23.6519 63.5951 22.7942C62.297 21.9363 61.2853 20.7415 60.5601 19.2096C59.8344 17.6778 59.4719 15.8907 59.4719 13.8481C59.4719 11.8056 59.8345 10.0185 60.5601 8.48657C61.2853 6.95474 62.297 5.75985 63.5951 4.902C64.8927 4.04416 66.4 3.61524 68.1168 3.61524C69.8536 3.61524 71.371 4.04416 72.6692 4.902C73.9667 5.75985 74.9784 6.95474 75.7041 8.48657C76.4293 10.0185 76.7923 11.806 76.7923 13.8481C76.7923 15.8903 76.4293 17.6778 75.7041 19.2096Z" fill="black"/>
<path d="M109.84 23.1311C109.431 22.784 109.022 22.3859 108.614 21.9363C108.307 21.6099 107.939 21.1704 107.51 20.6189C107.081 20.0675 106.657 19.5059 106.238 18.9338C105.819 18.3622 105.334 17.6777 104.782 16.8811C104.475 16.4728 104.118 16.0492 103.709 15.6097C103.3 15.1707 102.922 14.8797 102.575 14.7365C103.556 14.7365 104.439 14.456 105.226 13.894C106.013 13.3325 106.636 12.6025 107.096 11.7034C107.556 10.8049 107.786 9.8652 107.786 8.88483C107.786 7.98628 107.648 7.18447 107.372 6.47982C107.096 5.77517 106.703 5.17296 106.192 4.67226C105.681 4.17197 105.053 3.78903 104.307 3.52335C103.56 3.25809 102.728 3.12509 101.808 3.12509H93.5312V3.43148H93.9299C94.461 3.43148 94.9156 3.62062 95.294 3.99827C95.6719 4.37643 95.8712 4.83073 95.8918 5.36168V22.3347C95.8713 22.8662 95.672 23.3205 95.294 23.6981C94.916 24.0758 94.461 24.2649 93.9299 24.2649H93.5312V24.5713H100.214V24.2649H99.8463C99.3146 24.2649 98.8548 24.0764 98.4667 23.6981C98.0782 23.3205 97.8843 22.8662 97.8843 22.3347V4.07471C98.6625 4.0744 99.3429 4.06953 99.9229 4.05948C100.525 4.04943 101.113 4.06476 101.686 4.10537C102.83 4.16668 103.744 4.61094 104.429 5.43812C105.114 6.2653 105.466 7.3736 105.487 8.76229C105.507 9.08929 105.497 9.42095 105.456 9.758C105.415 10.0949 105.364 10.376 105.303 10.6005C105.017 11.5197 104.598 12.2042 104.046 12.6532C103.494 13.1028 102.901 13.3991 102.268 13.5418C101.634 13.6849 101.052 13.7667 100.521 13.7868C100.071 13.8074 99.5292 13.8074 98.896 13.7868V14.0932C99.4478 14.0932 99.9584 14.3076 100.429 14.7365C100.899 15.1655 101.328 15.6356 101.716 16.1458C101.757 16.2071 101.91 16.4268 102.176 16.8045C102.442 17.1827 102.759 17.637 103.127 18.1678C103.494 18.6992 103.867 19.2354 104.245 19.7763C104.623 20.3177 104.951 20.7825 105.226 21.1703C105.502 21.5585 105.671 21.7936 105.732 21.8749C106.059 22.2631 106.457 22.6668 106.928 23.0851C107.398 23.504 107.975 23.8563 108.66 24.1422C109.344 24.4284 110.157 24.5711 111.097 24.5711H112.783V24.2647C112.19 24.2647 111.654 24.1628 111.174 23.9583C110.693 23.7544 110.249 23.4786 109.84 23.1311H109.84Z" fill="black"/>
<path d="M129.276 3.125H125.015V3.43139H125.413C125.944 3.43139 126.399 3.62052 126.777 3.99817C127.155 4.37634 127.355 4.83064 127.375 5.36159V22.3346C127.355 22.8661 127.155 23.3204 126.777 23.698C126.399 24.0757 125.944 24.2648 125.413 24.2648H125.015V24.5712H131.728V24.2648H131.33C130.798 24.2648 130.343 24.0763 129.966 23.698C129.587 23.3204 129.388 22.8661 129.368 22.3346V5.36159C129.388 4.83074 129.587 4.37644 129.966 3.99817C130.344 3.6199 130.798 3.43139 131.33 3.43139H131.728V3.125H129.276Z" fill="black"/>
<path d="M157.694 17.3713C157.489 16.7178 157.08 16.1051 156.467 15.5331L150.428 9.95709C149.958 9.50807 149.636 9.0227 149.462 8.5018C149.288 7.981 149.202 7.5267 149.202 7.13838C149.202 6.19923 149.549 5.37681 150.244 4.67206C150.939 3.96741 151.848 3.61503 152.973 3.61503C153.933 3.61503 154.75 3.89604 155.425 4.45754C156.099 5.01957 156.437 5.7903 156.437 6.77068H156.713V3.00246H155.411C155.291 2.97698 155.169 2.9514 155.042 2.92581C154.684 2.85455 154.316 2.79852 153.938 2.75739C153.56 2.71669 153.207 2.69608 152.881 2.69608C151.716 2.69608 150.729 2.94643 149.922 3.44671C149.115 3.94742 148.507 4.59562 148.098 5.39224C147.689 6.18877 147.485 7.01595 147.485 7.8738C147.485 8.46648 147.608 9.10453 147.853 9.78856C148.098 10.4731 148.527 11.1012 149.141 11.6728L155.026 17.1262C155.414 17.4737 155.711 17.8874 155.916 18.367C156.12 18.8472 156.222 19.3833 156.222 19.9754C156.222 21.2009 155.818 22.1765 155.011 22.9013C154.203 23.6266 153.238 24.0195 152.114 24.0808C151.215 24.122 150.413 23.943 149.708 23.5446C149.002 23.1464 148.466 22.5595 148.098 21.783C147.73 21.007 147.597 20.0979 147.7 19.0563H147.424C147.281 19.5059 147.168 20.0013 147.087 20.5423C147.005 21.0837 146.964 21.5992 146.964 22.0894C146.964 22.5797 146.995 22.9885 147.056 23.315C147.464 23.7237 147.98 24.0555 148.604 24.3106C149.227 24.5663 149.871 24.7444 150.535 24.8468C151.199 24.9487 151.777 25 152.267 25C154.025 25 155.42 24.4692 156.452 23.4069C157.484 22.3452 158 20.9664 158 19.2708C158 18.6581 157.898 18.0253 157.694 17.3713Z" fill="black"/>
</g>
<path d="M68.2715 41.4453C68.2715 41.8672 68.3105 42.2344 68.3887 42.5469C68.4746 42.8516 68.5801 43.0898 68.7051 43.2617C68.8301 43.4258 68.9863 43.5586 69.1738 43.6602C69.3691 43.7539 69.5488 43.8164 69.7129 43.8477C69.877 43.8711 70.0684 43.8828 70.2871 43.8828C70.5918 43.8828 70.8535 43.8438 71.0723 43.7656C71.2988 43.6875 71.5059 43.5586 71.6934 43.3789C71.8809 43.1992 72.0215 42.9414 72.1152 42.6055C72.2168 42.2617 72.2676 41.8398 72.2676 41.3398C72.2676 41.2539 72.2676 41.1484 72.2676 41.0234C72.2676 40.8906 72.2676 40.7148 72.2676 40.4961C72.2676 39.418 72.252 38.3008 72.2207 37.1445C72.2051 37.0586 72.0371 36.9844 71.7168 36.9219L71.2363 36.8398V36.6641C71.6035 36.6953 72.0293 36.7109 72.5137 36.7109C73.0293 36.7109 73.459 36.6953 73.8027 36.6641V36.8984C73.4355 36.9219 73.0918 37.0117 72.7715 37.168C72.748 37.6602 72.7363 38.2578 72.7363 38.9609L72.7715 41.1992C72.7715 42.1445 72.5449 42.8789 72.0918 43.4023C71.6387 43.918 70.9668 44.1914 70.0762 44.2227C69.8027 44.2227 69.5332 44.1953 69.2676 44.1406C69.002 44.0938 68.7285 44.0039 68.4473 43.8711C68.166 43.7383 67.9199 43.5703 67.709 43.3672C67.5059 43.1562 67.334 42.8828 67.1934 42.5469C67.0605 42.2031 66.9941 41.8164 66.9941 41.3867C66.9941 41.3633 66.998 41.2383 67.0059 41.0117C67.0215 40.7773 67.0371 40.4453 67.0527 40.0156C67.0684 39.5859 67.0762 39.1094 67.0762 38.5859C67.0762 38.1094 67.0684 37.6289 67.0527 37.1445C67.0371 37.0586 66.8691 36.9844 66.5488 36.9219L66.0684 36.8398V36.6641C66.4355 36.6953 66.9473 36.7109 67.6035 36.7109C68.3066 36.7109 68.8301 36.6953 69.1738 36.6641V36.8984C68.7129 36.9375 68.4121 37.0273 68.2715 37.168C68.2637 37.6836 68.2598 38.3086 68.2598 39.043L68.2715 41.4453ZM77.916 36.3477C78.5176 36.3477 79.0293 36.5703 79.4512 37.0156C79.6465 36.9922 79.8027 36.8281 79.9199 36.5234H80.084L80.0488 38.7969C80.0488 38.7969 79.9746 38.7969 79.8262 38.7969C79.8027 38.5234 79.7715 38.2656 79.7324 38.0234C79.6934 37.7734 79.6074 37.5586 79.4746 37.3789C79.1074 36.8398 78.5801 36.5703 77.8926 36.5703C77.5254 36.5703 77.2129 36.7148 76.9551 37.0039C76.6973 37.2852 76.5684 37.5781 76.5684 37.8828C76.5684 38.2109 76.7246 38.5195 77.0371 38.8086C77.3496 39.0977 77.7637 39.3359 78.2793 39.5234C78.9902 39.7891 79.5605 40.1289 79.9902 40.543C80.4277 40.957 80.6465 41.4219 80.6465 41.9375C80.6465 42.6016 80.4277 43.1406 79.9902 43.5547C79.5527 43.9688 78.8262 44.1758 77.8105 44.1758C77.5918 44.1758 77.3809 44.1523 77.1777 44.1055C76.9746 44.0586 76.8066 44 76.6738 43.9297C76.5488 43.8594 76.4238 43.7891 76.2988 43.7188C76.1816 43.6406 76.0957 43.5781 76.041 43.5312C75.8848 43.6016 75.7402 43.7617 75.6074 44.0117H75.3613L75.3848 41.8789H75.6191C75.752 42.5195 75.9785 43.0156 76.2988 43.3672C76.627 43.7188 77.1152 43.8945 77.7637 43.8945C78.8574 43.8945 79.4043 43.3672 79.4043 42.3125C79.4043 41.625 78.8262 41.0781 77.6699 40.6719C77.0449 40.4531 76.5527 40.1445 76.1934 39.7461C75.834 39.3398 75.6543 38.9102 75.6543 38.457C75.6465 37.0508 76.4004 36.3477 77.916 36.3477ZM86.2949 40.7656H83.9395L82.8262 43.3789C82.8027 43.418 82.791 43.457 82.791 43.4961C82.791 43.6055 82.877 43.6953 83.0488 43.7656C83.2207 43.8281 83.3926 43.8594 83.5645 43.8594L83.5762 44.0469L81.2676 44.0586V43.8242C81.2754 43.8242 81.2832 43.8242 81.291 43.8242C81.4395 43.8242 81.5996 43.793 81.7715 43.7305C81.9434 43.6602 82.0801 43.5664 82.1816 43.4492C82.3145 43.293 82.8652 42.1094 83.834 39.8984L85.2871 36.5938H85.6738L88.2402 42.6758C88.459 43.1992 88.6973 43.5234 88.9551 43.6484C89.0254 43.6797 89.0996 43.7031 89.1777 43.7188C89.2559 43.7266 89.3301 43.7305 89.4004 43.7305C89.4707 43.7305 89.5215 43.7344 89.5527 43.7422L89.5293 44.0352C89.0059 44.0117 88.416 44 87.7598 44C87.166 44 86.6855 44.0117 86.3184 44.0352L86.3301 43.8125C86.3301 43.8203 86.4004 43.8242 86.541 43.8242C86.8223 43.8242 87.0176 43.7578 87.127 43.625C87.1816 43.5625 87.209 43.4766 87.209 43.3672C87.209 43.2656 87.1855 43.1523 87.1387 43.0273L87.0801 42.8516L86.2949 40.7656ZM84.0801 40.4844H86.2012L85.1582 37.9531L84.0801 40.4844Z" fill="black"/>
<defs>
<clipPath id="clip0_65_519">
<rect width="158" height="25" fill="white"/>
</clipPath>
</defs>
</svg>
