<?xml version="1.0" encoding="UTF-8"?>
<svg id="Layer_1" xmlns="http://www.w3.org/2000/svg" version="1.1" viewBox="0 0 118 118">
  <!-- Generator: Adobe Illustrator 30.5.1, SVG Export Plug-In . SVG Version: 2.1.4 Build 3)  -->
  <rect x="0" width="118" height="118" rx="30" ry="30" fill="#161514"/>
  <g isolation="isolate">
    <path d="M80.26,72.904l-.923,14.287h-40.264v-2.427c.684-.045,1.595-.142,2.734-.29,1.139-.148,1.88-.302,2.222-.462.729-.342,1.236-.786,1.521-1.333.285-.547.427-1.241.427-2.085v-34.864c0-.752-.125-1.419-.376-1.999-.251-.582-.775-1.054-1.572-1.419-.615-.296-1.441-.558-2.478-.786-1.037-.228-1.863-.364-2.478-.41v-2.427h37.529v11.689h-2.563c-.456-1.731-1.441-3.571-2.957-5.521-1.516-1.947-2.957-3.013-4.324-3.195-.707-.091-1.55-.159-2.529-.205-.98-.045-2.097-.068-3.35-.068h-7.622v19.278h5.469c1.754,0,3.036-.165,3.845-.496.809-.329,1.521-.882,2.136-1.657.501-.661.928-1.543,1.282-2.65.353-1.104.586-2.146.701-3.127h2.563v19.004h-2.563c-.091-1.094-.336-2.25-.735-3.469-.399-1.219-.815-2.103-1.248-2.649-.707-.889-1.51-1.47-2.41-1.743-.9-.273-2.091-.41-3.572-.41h-5.469v14.537c0,1.456.103,2.604.308,3.446s.604,1.479,1.196,1.911c.592.433,1.401.711,2.427.836s2.483.188,4.375.188h2.974c1.23,0,2.267-.045,3.11-.137.866-.091,1.76-.256,2.683-.496.923-.238,1.578-.563,1.965-.974,1.048-1.094,2.147-2.751,3.298-4.974,1.15-2.221,1.885-3.855,2.205-4.904h2.461ZM65.939,29.939c-1.003.502-2.558,1.26-4.666,2.272-2.108,1.015-4.495,2.171-7.161,3.47l-1.06-1.333c2.073-1.982,3.765-3.617,5.076-4.904,1.31-1.287,2.603-2.604,3.879-3.948.729-.774,1.396-1.327,2-1.657.604-.33,1.248-.496,1.931-.496.866,0,1.606.263,2.222.786.615.524.923,1.174.923,1.948,0,.98-.296,1.755-.889,2.324-.593.57-1.345,1.083-2.256,1.538Z" fill="#fff"/>
  </g>
</svg>